<svg width="40" height="39" viewBox="0 0 40 39" fill="none" xmlns="http://www.w3.org/2000/svg">
<g clip-path="url(#clip0_4516_5142)">
<path d="M30.1759 4.76337C31.4389 4.24019 32.0387 2.79216 31.5156 1.5291C30.9924 0.266041 29.5444 -0.333754 28.2813 0.189423C27.0182 0.7126 26.4184 2.16063 26.9416 3.42369C27.4648 4.68675 28.9128 5.28655 30.1759 4.76337Z" fill="#2A47E1"/>
<path d="M28.5698 13.2038C28.5698 13.9197 27.988 14.5014 27.2722 14.5014C26.5564 14.5014 25.9746 13.9197 25.9746 13.2038C25.9746 12.488 26.5564 11.9062 27.2722 11.9062C27.988 11.9062 28.5698 12.488 28.5698 13.2038Z" fill="#2A47E1"/>
<path d="M35.7511 13.4975C37.0549 12.9575 37.6741 11.4628 37.134 10.1589C36.594 8.85514 35.0992 8.236 33.7954 8.77605C32.4916 9.31611 31.8725 10.8108 32.4125 12.1147C32.9526 13.4185 34.4473 14.0376 35.7511 13.4975Z" fill="#2A47E1"/>
<path d="M36.1169 4.502L36.5046 4.00507C36.6835 3.77573 37.0157 3.7347 37.2451 3.91363L39.7994 5.9064C40.0288 6.08533 40.0698 6.41755 39.8909 6.6469L39.5032 7.14383C39.3242 7.37317 38.992 7.4142 38.7627 7.23527L36.2084 5.2425C35.979 5.06357 35.938 4.73134 36.1169 4.502Z" fill="#2A47E1"/>
<path d="M25.5193 6.07493L23.5283 8.62699C23.3491 8.85673 23.39 9.18826 23.6198 9.3675L24.1144 9.75342C24.3442 9.93265 24.6757 9.89171 24.8549 9.66197L26.846 7.10991C27.0252 6.88018 26.9843 6.54864 26.7545 6.36941L26.2598 5.98349C26.0301 5.80426 25.6986 5.8452 25.5193 6.07493Z" fill="#2A47E1"/>
<path d="M34.7925 21.5887C32.1261 21.8311 29.7676 19.8776 29.5195 17.2254C29.5109 17.137 29.5109 17.0514 29.5081 16.9658C28.624 17.6047 27.5631 18.021 26.3967 18.1294C22.9345 18.4459 19.8717 15.9078 19.5494 12.4628C19.3697 10.5207 20.0998 8.70689 21.3917 7.43497C19.4211 6.97012 17.8782 5.30179 17.6814 3.18287C17.5987 2.29309 17.7699 1.44039 18.1263 0.6875C8.06502 0.98124 0 9.22593 0 19.3557C0 29.4854 8.36732 38.041 18.6853 38.041C29.0033 38.041 36.6947 30.3296 37.3278 20.582C36.6206 21.1324 35.7536 21.4974 34.7897 21.5858L34.7925 21.5887ZM8.21902 19.7892L7.74276 20.2027C7.52317 20.3938 7.1895 20.3681 7.00128 20.1514L4.87666 17.7045C4.68558 17.4849 4.71125 17.1512 4.92799 16.963L5.40425 16.5495C5.62384 16.3584 5.95751 16.3841 6.14858 16.6008L8.27321 19.0477C8.46428 19.2673 8.43861 19.6009 8.22187 19.792L8.21902 19.7892ZM11.684 9.43126C13.05 9.43126 14.1594 10.5378 14.1594 11.9067C14.1594 13.2756 13.0529 14.3821 11.684 14.3821C10.3151 14.3821 9.20861 13.2756 9.20861 11.9067C9.20861 10.5378 10.3151 9.43126 11.684 9.43126ZM11.684 26.8418C10.683 26.8418 9.87309 26.0319 9.87309 25.0309C9.87309 24.0299 10.683 23.2199 11.684 23.2199C12.685 23.2199 13.4949 24.0299 13.4949 25.0309C13.4949 26.0319 12.685 26.8418 11.684 26.8418ZM15.0577 32.2061C14.4418 32.2061 13.9427 31.707 13.9427 31.091C13.9427 30.475 14.4418 29.976 15.0577 29.976C15.6737 29.976 16.1728 30.475 16.1728 31.091C16.1728 31.707 15.6737 32.2061 15.0577 32.2061ZM19.2271 19.4156L17.2337 21.9708C17.0569 22.199 16.7232 22.2389 16.4951 22.0621L15.9989 21.6742C15.7707 21.4974 15.7308 21.1638 15.9076 20.9356L17.901 18.3804C18.0779 18.1522 18.4115 18.1123 18.6397 18.2891L19.1359 18.6769C19.364 18.8538 19.404 19.1874 19.2271 19.4156ZM22.7121 31.7897C21.3461 31.7897 20.2367 30.6832 20.2367 29.3143C20.2367 27.9454 21.3432 26.8389 22.7121 26.8389C24.081 26.8389 25.1875 27.9454 25.1875 29.3143C25.1875 30.6832 24.081 31.7897 22.7121 31.7897ZM29.6706 26.6307L29.2828 27.127C29.1059 27.3551 28.7723 27.395 28.5441 27.2182L25.9889 25.2248C25.7607 25.048 25.7208 24.7143 25.8976 24.4862L26.2855 23.9899C26.4623 23.7618 26.796 23.7219 27.0241 23.8987L29.5794 25.8921C29.8075 26.0689 29.8474 26.4026 29.6706 26.6307Z" fill="#2A47E1"/>
</g>
<defs>
<clipPath id="clip0_4516_5142">
<rect width="40" height="38.0436" fill="white"/>
</clipPath>
</defs>
</svg>
