<svg width="97" height="97" viewBox="0 0 97 97" fill="none" xmlns="http://www.w3.org/2000/svg">
<path d="M96.875 48.875C96.875 75.3847 75.3847 96.875 48.875 96.875C22.3653 96.875 0.875 75.3847 0.875 48.875C0.875 22.3653 22.3653 0.875 48.875 0.875C75.3847 0.875 96.875 22.3653 96.875 48.875Z" fill="#FFD08C"/>
<path d="M62.3737 56C61.9687 56 61.6077 55.9384 61.2907 55.8151C60.9737 55.686 60.7067 55.5128 60.4895 55.2956C60.2781 55.0784 60.1167 54.8289 60.0052 54.5472C59.8937 54.2654 59.8379 53.969 59.8379 53.6579C59.8379 53.2117 59.9347 52.8038 60.1285 52.434C60.3222 52.0583 60.6069 51.7589 60.9825 51.5358C61.3582 51.3069 61.822 51.1925 62.3737 51.1925C62.9255 51.1925 63.3893 51.304 63.7649 51.527C64.1406 51.7501 64.4253 52.0436 64.619 52.4075C64.8127 52.7715 64.9096 53.1677 64.9096 53.5962C64.9096 53.6843 64.9037 53.7753 64.892 53.8692C64.8861 53.9572 64.8773 54.0365 64.8656 54.1069H61.6165C61.6282 54.2713 61.6723 54.4063 61.7486 54.5119C61.8308 54.6117 61.9306 54.6851 62.048 54.7321C62.1712 54.779 62.2974 54.8025 62.4266 54.8025C62.6085 54.8025 62.7788 54.7614 62.9373 54.6792C63.1016 54.5971 63.2102 54.4826 63.263 54.3358L64.6807 54.7409C64.5574 54.9874 64.3842 55.2046 64.1612 55.3925C63.944 55.5803 63.6857 55.73 63.3863 55.8415C63.0869 55.9472 62.7494 56 62.3737 56ZM61.5813 53.1031H63.1134C63.0958 52.9505 63.0517 52.8214 62.9813 52.7157C62.9167 52.6101 62.8287 52.5279 62.7171 52.4692C62.6115 52.4105 62.4882 52.3811 62.3473 52.3811C62.2064 52.3811 62.0802 52.4105 61.9687 52.4692C61.863 52.5279 61.775 52.6101 61.7046 52.7157C61.64 52.8214 61.5989 52.9505 61.5813 53.1031Z" fill="#775B33"/>
<path d="M53.9911 53.5874C53.9911 53.1296 54.0762 52.7216 54.2464 52.3635C54.4225 51.9996 54.6632 51.7149 54.9684 51.5094C55.2737 51.2981 55.623 51.1925 56.0162 51.1925C56.3156 51.1925 56.5915 51.2629 56.8439 51.4038C57.0963 51.5388 57.2871 51.7266 57.4162 51.9673V49.4843H59.0892V54.0629C59.0892 54.2214 59.1127 54.3329 59.1596 54.3975C59.2066 54.4562 59.2888 54.4914 59.4062 54.5031V55.9119C59.1186 55.9706 58.8837 56 58.7018 56C58.42 56 58.197 55.9472 58.0326 55.8415C57.8682 55.7358 57.7626 55.5744 57.7156 55.3572L57.6804 55.1899C57.5219 55.4717 57.3076 55.6771 57.0376 55.8063C56.7676 55.9354 56.48 56 56.1747 56C55.8578 56 55.5643 55.9413 55.2942 55.8239C55.0301 55.7065 54.7982 55.5421 54.5986 55.3308C54.4049 55.1136 54.2552 54.8583 54.1496 54.5648C54.0439 54.2654 53.9911 53.9396 53.9911 53.5874ZM57.4251 54.1157V53.288C57.3722 53.153 57.2988 53.0356 57.2049 52.9358C57.1169 52.8302 57.0171 52.748 56.9056 52.6893C56.794 52.6306 56.6796 52.6013 56.5622 52.6013C56.4389 52.6013 56.3244 52.6277 56.2188 52.6805C56.119 52.7333 56.0309 52.8067 55.9546 52.9006C55.8783 52.9945 55.8196 53.1031 55.7785 53.2264C55.7374 53.3497 55.7169 53.4818 55.7169 53.6226C55.7169 53.7694 55.7374 53.9015 55.7785 54.0189C55.8255 54.1363 55.89 54.239 55.9722 54.327C56.0544 54.4092 56.1513 54.4738 56.2628 54.5208C56.3743 54.5677 56.4976 54.5912 56.6326 54.5912C56.7148 54.5912 56.7911 54.5824 56.8615 54.5648C56.932 54.5413 56.9995 54.5119 57.064 54.4767C57.1286 54.4356 57.1902 54.3857 57.2489 54.327C57.3135 54.2625 57.3722 54.192 57.4251 54.1157Z" fill="#775B33"/>
<path d="M51.0724 49.4843H52.7453V54.0717C52.7453 54.2419 52.7806 54.374 52.851 54.4679C52.9273 54.556 53.0359 54.6 53.1768 54.6C53.2472 54.6 53.3235 54.5883 53.4057 54.5648C53.4879 54.5413 53.5642 54.509 53.6347 54.4679L53.846 55.7006C53.6464 55.7945 53.4204 55.8679 53.168 55.9208C52.9214 55.9736 52.6866 56 52.4636 56C52.0175 56 51.6741 55.8855 51.4334 55.6566C51.1927 55.4218 51.0724 55.0901 51.0724 54.6616V49.4843Z" fill="#775B33"/>
<path d="M50.588 52.7069C50.2651 52.7069 49.9716 52.7421 49.7075 52.8126C49.4433 52.883 49.2467 53.0004 49.1175 53.1648V55.9119H47.4446V51.2805H48.9767V52.161C49.141 51.8499 49.3465 51.6122 49.593 51.4478C49.8395 51.2776 50.1008 51.1925 50.3767 51.1925C50.4412 51.1925 50.4853 51.1925 50.5087 51.1925C50.5381 51.1925 50.5645 51.1954 50.588 51.2013V52.7069Z" fill="#775B33"/>
<path d="M44.3164 56C43.9055 56 43.5415 55.9354 43.2245 55.8063C42.9076 55.6771 42.6405 55.501 42.4233 55.278C42.212 55.0491 42.0505 54.7908 41.939 54.5031C41.8333 54.2155 41.7805 53.9132 41.7805 53.5962C41.7805 53.2792 41.8333 52.9769 41.939 52.6893C42.0505 52.3958 42.212 52.1375 42.4233 51.9145C42.6405 51.6914 42.9076 51.5153 43.2245 51.3862C43.5415 51.257 43.9055 51.1925 44.3164 51.1925C44.7331 51.1925 45.0971 51.257 45.4082 51.3862C45.7252 51.5153 45.9893 51.6914 46.2006 51.9145C46.4178 52.1375 46.5793 52.3958 46.6849 52.6893C46.7965 52.9769 46.8522 53.2792 46.8522 53.5962C46.8522 53.9132 46.7965 54.2155 46.6849 54.5031C46.5793 54.7908 46.4178 55.0491 46.2006 55.278C45.9893 55.501 45.7252 55.6771 45.4082 55.8063C45.0971 55.9354 44.7331 56 44.3164 56ZM43.4975 53.5962C43.4975 53.8017 43.5327 53.9807 43.6032 54.1333C43.6736 54.2801 43.7705 54.3945 43.8937 54.4767C44.017 54.553 44.1579 54.5912 44.3164 54.5912C44.4749 54.5912 44.6157 54.553 44.739 54.4767C44.8623 54.3945 44.9591 54.2801 45.0296 54.1333C45.1 53.9807 45.1352 53.8017 45.1352 53.5962C45.1352 53.3908 45.1 53.2147 45.0296 53.0679C44.9591 52.9153 44.8623 52.8008 44.739 52.7245C44.6157 52.6423 44.4749 52.6013 44.3164 52.6013C44.1579 52.6013 44.017 52.6423 43.8937 52.7245C43.7705 52.8008 43.6736 52.9153 43.6032 53.0679C43.5327 53.2147 43.4975 53.3908 43.4975 53.5962Z" fill="#775B33"/>
<path d="M35.4466 49.6604H37.0227L37.595 51.5887L38.1762 49.6604H39.7523L38.6957 52.6453L39.1447 53.922L40.4919 49.6604H42.3586L39.9988 55.9119H38.5108L37.595 53.6755L36.6881 55.9119H35.2001L32.8403 49.6604H34.6982L36.0542 53.922L36.4856 52.6453L35.4466 49.6604Z" fill="#775B33"/>
<path d="M56.8706 48.5157C56.4655 48.5157 56.1045 48.4541 55.7875 48.3308C55.4706 48.2017 55.2035 48.0285 54.9863 47.8113C54.775 47.5941 54.6135 47.3447 54.502 47.0629C54.3905 46.7811 54.3347 46.4847 54.3347 46.1736C54.3347 45.7275 54.4316 45.3195 54.6253 44.9497C54.819 44.574 55.1037 44.2746 55.4794 44.0516C55.8551 43.8226 56.3188 43.7082 56.8706 43.7082C57.4223 43.7082 57.8861 43.8197 58.2618 44.0428C58.6374 44.2658 58.9221 44.5593 59.1158 44.9233C59.3096 45.2872 59.4064 45.6834 59.4064 46.1119C59.4064 46.2 59.4005 46.291 59.3888 46.3849C59.3829 46.473 59.3741 46.5522 59.3624 46.6226H56.1133C56.1251 46.787 56.1691 46.922 56.2454 47.0277C56.3276 47.1275 56.4274 47.2008 56.5448 47.2478C56.6681 47.2948 56.7943 47.3182 56.9234 47.3182C57.1054 47.3182 57.2756 47.2771 57.4341 47.195C57.5984 47.1128 57.707 46.9983 57.7599 46.8516L59.1775 47.2566C59.0542 47.5031 58.881 47.7203 58.658 47.9082C58.4408 48.096 58.1825 48.2457 57.8831 48.3572C57.5838 48.4629 57.2462 48.5157 56.8706 48.5157ZM56.0781 45.6189H57.6102C57.5926 45.4662 57.5486 45.3371 57.4781 45.2314C57.4135 45.1258 57.3255 45.0436 57.214 44.9849C57.1083 44.9262 56.985 44.8969 56.8442 44.8969C56.7033 44.8969 56.5771 44.9262 56.4655 44.9849C56.3599 45.0436 56.2718 45.1258 56.2014 45.2314C56.1368 45.3371 56.0957 45.4662 56.0781 45.6189Z" fill="#775B33"/>
<path d="M48.4878 46.1031C48.4878 45.6453 48.5729 45.2373 48.7431 44.8792C48.9192 44.5153 49.1599 44.2306 49.4652 44.0252C49.7704 43.8138 50.1197 43.7082 50.5129 43.7082C50.8123 43.7082 51.0882 43.7786 51.3406 43.9195C51.593 44.0545 51.7838 44.2423 51.9129 44.483V42H53.5859V46.5786C53.5859 46.7371 53.6094 46.8486 53.6563 46.9132C53.7033 46.9719 53.7855 47.0071 53.9029 47.0189V48.4277C53.6153 48.4864 53.3805 48.5157 53.1985 48.5157C52.9167 48.5157 52.6937 48.4629 52.5293 48.3572C52.3649 48.2516 52.2593 48.0901 52.2123 47.873L52.1771 47.7057C52.0186 47.9874 51.8044 48.1929 51.5343 48.322C51.2643 48.4512 50.9767 48.5157 50.6714 48.5157C50.3545 48.5157 50.061 48.457 49.7909 48.3396C49.5268 48.2222 49.2949 48.0579 49.0953 47.8465C48.9016 47.6293 48.7519 47.374 48.6463 47.0805C48.5406 46.7811 48.4878 46.4553 48.4878 46.1031ZM51.9218 46.6314V45.8038C51.8689 45.6688 51.7955 45.5514 51.7016 45.4516C51.6136 45.3459 51.5138 45.2637 51.4023 45.205C51.2907 45.1463 51.1763 45.117 51.0589 45.117C50.9356 45.117 50.8211 45.1434 50.7155 45.1962C50.6157 45.2491 50.5276 45.3224 50.4513 45.4164C50.375 45.5103 50.3163 45.6189 50.2752 45.7421C50.2341 45.8654 50.2136 45.9975 50.2136 46.1384C50.2136 46.2851 50.2341 46.4172 50.2752 46.5346C50.3222 46.652 50.3867 46.7547 50.4689 46.8428C50.5511 46.9249 50.648 46.9895 50.7595 47.0365C50.871 47.0834 50.9943 47.1069 51.1293 47.1069C51.2115 47.1069 51.2878 47.0981 51.3582 47.0805C51.4287 47.057 51.4962 47.0277 51.5607 46.9925C51.6253 46.9514 51.687 46.9015 51.7457 46.8428C51.8102 46.7782 51.8689 46.7078 51.9218 46.6314Z" fill="#775B33"/>
<path d="M45.5692 42H47.2422V46.5874C47.2422 46.7577 47.2774 46.8897 47.3478 46.9836C47.4241 47.0717 47.5327 47.1157 47.6736 47.1157C47.7441 47.1157 47.8204 47.104 47.9025 47.0805C47.9847 47.057 48.061 47.0247 48.1315 46.9836L48.3428 48.2164C48.1432 48.3103 47.9172 48.3836 47.6648 48.4365C47.4183 48.4893 47.1835 48.5157 46.9604 48.5157C46.5143 48.5157 46.1709 48.4013 45.9302 48.1723C45.6896 47.9375 45.5692 47.6059 45.5692 47.1774V42Z" fill="#775B33"/>
<path d="M41.804 48.4805C41.3285 48.4805 40.897 48.3924 40.5096 48.2163C40.1222 48.0344 39.7876 47.7937 39.5058 47.4943C39.2299 47.1891 39.0157 46.8486 38.8631 46.473C38.7163 46.0914 38.6429 45.6981 38.6429 45.2931C38.6429 44.8763 38.7222 44.4801 38.8807 44.1044C39.0392 43.7287 39.2593 43.3941 39.5411 43.1006C39.8287 42.8013 40.1662 42.5665 40.5536 42.3962C40.9469 42.226 41.3754 42.1409 41.8392 42.1409C42.3146 42.1409 42.7461 42.2319 43.1335 42.4138C43.5209 42.5899 43.8526 42.8306 44.1285 43.1358C44.4044 43.4411 44.6157 43.7845 44.7624 44.166C44.9151 44.5417 44.9914 44.9291 44.9914 45.3283C44.9914 45.7392 44.9121 46.1325 44.7536 46.5082C44.601 46.8839 44.3809 47.2214 44.0933 47.5208C43.8115 47.8143 43.4769 48.0491 43.0895 48.2252C42.7021 48.3954 42.2736 48.4805 41.804 48.4805ZM40.3863 45.3107C40.3863 45.522 40.4157 45.7275 40.4744 45.927C40.5331 46.1208 40.6211 46.2969 40.7385 46.4553C40.8559 46.608 41.0027 46.7312 41.1788 46.8252C41.3608 46.9132 41.575 46.9572 41.8216 46.9572C42.0681 46.9572 42.2824 46.9103 42.4643 46.8163C42.6463 46.7224 42.793 46.5962 42.9046 46.4377C43.022 46.2734 43.1071 46.0943 43.1599 45.9006C43.2186 45.701 43.248 45.4985 43.248 45.2931C43.248 45.0818 43.2186 44.8792 43.1599 44.6855C43.1012 44.4918 43.0132 44.3187 42.8958 44.166C42.7784 44.0075 42.6287 43.8843 42.4467 43.7962C42.2647 43.7082 42.0534 43.6641 41.8128 43.6641C41.5662 43.6641 41.352 43.7111 41.17 43.805C40.9939 43.8989 40.8471 44.0252 40.7297 44.1836C40.6123 44.3363 40.5243 44.5124 40.4656 44.7119C40.4128 44.9057 40.3863 45.1052 40.3863 45.3107Z" fill="#775B33"/>
<path fill-rule="evenodd" clip-rule="evenodd" d="M48.8748 91.3905C72.3555 91.3905 91.3903 72.3557 91.3903 48.875C91.3903 25.3944 72.3555 6.35953 48.8748 6.35953C25.3941 6.35953 6.3593 25.3944 6.3593 48.875C6.3593 72.3557 25.3941 91.3905 48.8748 91.3905ZM48.8748 94.1877C73.9003 94.1877 94.1875 73.9005 94.1875 48.875C94.1875 23.8495 73.9003 3.56236 48.8748 3.56236C23.8493 3.56236 3.56213 23.8495 3.56213 48.875C3.56213 73.9005 23.8493 94.1877 48.8748 94.1877Z" fill="#775B33"/>
<path fill-rule="evenodd" clip-rule="evenodd" d="M43.6328 12.8357C41.6221 12.8357 39.9965 14.4612 39.9965 16.472C39.9965 18.4828 41.6221 20.1083 43.6328 20.1083C45.6427 20.1083 47.2691 18.4789 47.2691 16.472C47.2691 14.4612 45.6436 12.8357 43.6328 12.8357ZM47.2691 21.7802V27.4742H50.0663V16.472C50.0663 12.9164 47.1884 10.0385 43.6328 10.0385C40.0772 10.0385 37.1993 12.9164 37.1993 16.472C37.1993 20.0276 40.0772 22.9055 43.6328 22.9055C44.9829 22.9055 46.2351 22.49 47.2691 21.7802Z" fill="#775B33"/>
<path fill-rule="evenodd" clip-rule="evenodd" d="M30.0595 22.4905C28.9766 20.8022 26.7282 20.3122 25.0362 21.3975C23.3479 22.4804 22.8579 24.7288 23.9432 26.4208C25.0262 28.1091 27.2745 28.5991 28.9665 27.5138C30.6548 26.4308 31.1448 24.1825 30.0595 22.4905ZM32.4138 20.98C32.4138 20.9801 32.4139 20.9802 32.4139 20.9803L38.362 30.238L36.0087 31.75L32.9289 26.9564C32.4425 28.1128 31.6133 29.1392 30.4767 29.8682C27.4881 31.7852 23.5081 30.9232 21.5888 27.931C19.6718 24.9423 20.5337 20.9624 23.526 19.0431C26.5146 17.1261 30.4944 17.988 32.4138 20.98Z" fill="#775B33"/>
<path fill-rule="evenodd" clip-rule="evenodd" d="M18.8383 36.8583C17.0058 36.0257 14.8501 36.831 14.0206 38.6545C13.1869 40.4872 13.9922 42.6439 15.8161 43.4735C17.6489 44.3072 19.8055 43.502 20.6352 41.678C21.4673 39.8487 20.6624 37.6939 18.8383 36.8583ZM23.6644 39.0612C23.8811 40.2966 23.74 41.6082 23.1813 42.8362C21.708 46.0752 17.888 47.489 14.6579 46.0197C11.419 44.5463 10.0052 40.7264 11.4745 37.4963C12.9478 34.2573 16.7678 32.8435 19.9979 34.3128L19.9995 34.3136L20.0007 34.3141L30.0087 38.8823L28.8472 41.4269L23.6644 39.0612Z" fill="#775B33"/>
<path fill-rule="evenodd" clip-rule="evenodd" d="M17.1614 55.012L17.1611 55.012L17.1591 55.0123C15.1778 55.2944 13.7975 57.1371 14.0809 59.1275C14.363 61.1088 16.2056 62.489 18.196 62.2056C20.1773 61.9236 21.5576 60.0809 21.2742 58.0905C20.9919 56.1076 19.1491 54.7267 17.1633 55.0117C17.1627 55.0118 17.162 55.0119 17.1614 55.012ZM16.7653 52.243L27.6531 50.677L28.0514 53.4456L22.4142 54.2565C23.2642 55.1795 23.8532 56.3602 24.0435 57.6962C24.5433 61.2069 22.1101 64.4738 18.5903 64.9749C15.0796 65.4747 11.8128 63.0415 11.3117 59.5217C10.8119 56.0114 13.2445 52.7449 16.7636 52.2432M16.7653 52.243C16.7651 52.243 16.765 52.2431 16.7648 52.2431C16.7645 52.2431 16.7641 52.2432 16.7637 52.2432" fill="#775B33"/>
<path fill-rule="evenodd" clip-rule="evenodd" d="M25.5701 71.1923L25.5699 71.1924L25.5688 71.1934C24.0515 72.5055 23.8858 74.8006 25.2026 76.3195L25.2037 76.3208C26.5144 77.8365 28.8102 78.0011 30.3311 76.6859C31.8484 75.3738 32.0142 73.0787 30.6974 71.5598L30.6962 71.5585C29.3847 70.0418 27.0909 69.8756 25.572 71.1906C25.5714 71.1911 25.5708 71.1917 25.5701 71.1923ZM23.7401 69.0768L32.0549 61.8712L33.8868 63.9851L29.5818 67.7158C30.7953 68.0329 31.9288 68.7077 32.8114 69.7282C35.1396 72.4144 34.8483 76.4776 32.1608 78.8017C29.4771 81.1224 25.415 80.84 23.0891 78.1518M23.7401 69.0768C23.7398 69.0771 23.7395 69.0774 23.7392 69.0776C23.739 69.0778 23.7387 69.078 23.7385 69.0782M23.7385 69.0782C21.0515 71.4024 20.7605 75.4651 23.0885 78.1511L23.7385 69.0782Z" fill="#775B33"/>
<path fill-rule="evenodd" clip-rule="evenodd" d="M38.7059 79.4664C38.706 79.4664 38.706 79.4664 38.706 79.4663L41.8061 68.9072L44.49 69.6951L42.8851 75.1616C44.077 74.7719 45.3949 74.7259 46.689 75.106C50.0959 76.1066 52.0504 79.6804 51.0493 83.089C50.0487 86.4959 46.4749 88.4505 43.0663 87.4493C39.6595 86.4487 37.7049 82.875 38.7059 79.4664ZM41.3898 80.2544C41.9557 78.3281 43.9762 77.2245 45.9008 77.7898C47.8271 78.3556 48.9308 80.3761 48.3655 82.3008C47.7997 84.2272 45.7792 85.3308 43.8545 84.7655C41.9282 84.1997 40.8245 82.1792 41.3898 80.2546C41.3898 80.2545 41.3898 80.2545 41.3898 80.2544Z" fill="#775B33"/>
<path fill-rule="evenodd" clip-rule="evenodd" d="M59.5991 79.3265C59.5991 79.3265 59.5991 79.3265 59.5991 79.3266C60.165 81.2529 62.1855 82.3565 64.1101 81.7912C66.0365 81.2254 67.1401 79.2049 66.5748 77.2802C66.009 75.3539 63.9885 74.2502 62.0639 74.8155C60.1375 75.3813 59.0338 77.4018 59.5991 79.3265ZM58.1044 74.2356L56.4989 68.7673L53.8151 69.5553L56.9153 80.1146C56.9153 80.1146 56.9153 80.1147 56.9153 80.1147C57.9159 83.5216 61.4897 85.4761 64.8983 84.475C68.3052 83.4744 70.2598 79.9006 69.2586 76.492C68.258 73.0851 64.6842 71.1306 61.2756 72.1317C59.9815 72.5118 58.897 73.2631 58.1044 74.2356Z" fill="#775B33"/>
<path fill-rule="evenodd" clip-rule="evenodd" d="M79.1736 63.2069C77.6538 61.8933 75.3625 62.056 74.0464 63.5732C72.7327 65.0931 72.8954 67.3845 74.4127 68.7006C74.4127 68.7006 74.4127 68.7006 74.4127 68.7006C75.9325 70.0143 78.2239 69.8516 79.54 68.3343C80.8538 66.8144 80.691 64.5229 79.1736 63.2069ZM70.4026 65.2255C70.5437 63.9799 71.0495 62.7625 71.9312 61.743L71.9323 61.7416C74.2618 59.0547 78.3191 58.7699 81.004 61.0917L81.0054 61.0929C83.6923 63.4224 83.9771 67.4796 81.6553 70.1646L81.6541 70.1659C79.3246 72.8529 75.2674 73.1376 72.5824 70.8158L72.5813 70.8149L72.5811 70.8147L64.2644 63.6075L66.0963 61.4936L70.4026 65.2255Z" fill="#775B33"/>
<path fill-rule="evenodd" clip-rule="evenodd" d="M82.1648 44.5599C80.1802 44.274 78.338 45.6533 78.0516 47.6407C77.7657 49.6252 79.1449 51.4674 81.1321 51.7538C81.1323 51.7539 81.1324 51.7539 81.1325 51.7539C83.117 52.0398 84.9593 50.6605 85.2456 48.6731C85.5315 46.6885 84.1523 44.8462 82.1648 44.5599ZM80.7339 54.5225C84.2503 55.0289 87.508 52.5855 88.0142 49.0719C88.5208 45.5554 86.0773 42.2975 82.5637 41.7913C79.0472 41.2847 75.7893 43.7282 75.2831 47.2419C75.0908 48.5767 75.3235 49.8742 75.8786 50.9982L70.2419 50.1874L69.8436 52.9561L80.7336 54.5225C80.7337 54.5225 80.7338 54.5225 80.7339 54.5225Z" fill="#775B33"/>
<path fill-rule="evenodd" clip-rule="evenodd" d="M63.903 15.6866C62.2111 14.6013 59.9627 15.0913 58.8797 16.7796C57.7945 18.4716 58.2844 20.72 59.9727 21.8029C61.6631 22.8871 63.9087 22.3992 64.9929 20.7148C64.9939 20.7132 64.995 20.7115 64.996 20.7099C64.9961 20.7098 64.9961 20.7098 64.9962 20.7097C66.0813 19.0178 65.5913 16.7695 63.903 15.6866ZM67.3499 22.221C67.3501 22.2207 67.3503 22.2204 67.3505 22.2201C69.2675 19.2315 68.4055 15.2515 65.4132 13.3322C62.4246 11.4152 58.4446 12.2772 56.5253 15.2694C54.6083 18.2581 55.4703 22.238 58.4625 24.1574C59.597 24.885 60.8743 25.2123 62.1275 25.1746L59.048 29.9676L61.4013 31.4796L67.3454 22.2279C67.3469 22.2256 67.3484 22.2233 67.3499 22.221Z" fill="#775B33"/>
<path fill-rule="evenodd" clip-rule="evenodd" d="M79.4247 29.0188C78.5891 27.1906 76.4332 26.386 74.6089 27.2198C72.7807 28.0555 71.9762 30.2114 72.81 32.0356C73.6448 33.8621 75.7973 34.6668 77.6205 33.837C77.6223 33.8362 77.624 33.8354 77.6258 33.8346C77.6259 33.8345 77.6259 33.8345 77.626 33.8345C79.454 32.9988 80.2585 30.843 79.4247 29.0188ZM78.7876 36.379C78.7879 36.3789 78.7883 36.3787 78.7886 36.3786C82.0179 34.9026 83.4465 31.0892 81.9687 27.856C80.4927 24.6267 76.6793 23.198 73.4461 24.6758C70.2168 26.1518 68.7882 29.9652 70.266 33.1984C70.8262 34.4242 71.7233 35.3906 72.7976 36.037L67.6143 38.4014L68.7752 40.9463L78.7801 36.3825C78.7826 36.3813 78.7851 36.3802 78.7876 36.379Z" fill="#775B33"/>
<path fill-rule="evenodd" clip-rule="evenodd" d="M48.9007 28.7096C37.8295 28.7096 28.8544 37.6847 28.8544 48.7559C28.8544 59.8272 37.8295 68.8023 48.9007 68.8023C59.972 68.8023 68.9471 59.8272 68.9471 48.7559C68.9471 37.6847 59.972 28.7096 48.9007 28.7096ZM26.0573 48.7559C26.0573 36.1398 36.2846 25.9124 48.9007 25.9124C61.5169 25.9124 71.7442 36.1398 71.7442 48.7559C71.7442 61.3721 61.5169 71.5994 48.9007 71.5994C36.2846 71.5994 26.0573 61.3721 26.0573 48.7559Z" fill="#775B33"/>
</svg>
