<svg width="80" height="32" viewBox="0 0 80 32" fill="none" xmlns="http://www.w3.org/2000/svg">
<path d="M74.4706 21.5884C74.9275 21.5884 75.2828 21.6899 75.5365 21.8929C75.7903 22.0833 75.968 22.3307 76.0695 22.6352C76.171 22.9271 76.2218 23.2189 76.2218 23.5108C76.2218 24.0818 76.0568 24.5386 75.7269 24.8812C75.4097 25.2111 74.9909 25.3761 74.4706 25.3761C73.9123 25.3761 73.4872 25.2492 73.1954 24.9954C72.9162 24.7416 72.7766 24.4117 72.7766 24.0057C72.7766 23.5742 72.8655 23.2189 73.0431 22.9398C73.2335 22.6606 73.4682 22.4259 73.7474 22.2355C73.519 22.2355 73.3159 22.2799 73.1383 22.3688C72.986 22.4322 72.8401 22.521 72.7005 22.6352C72.5609 22.7494 72.4404 22.8827 72.3389 23.0349C72.2373 23.1745 72.1549 23.3331 72.0914 23.5108C72.0407 23.6884 72.0153 23.8724 72.0153 24.0628V29.7729C72.0153 30.382 72.1422 30.7944 72.396 31.0101C72.6497 31.2258 73.0685 31.3337 73.6522 31.3337V31.7334C73.3603 31.7207 72.9226 31.708 72.3389 31.6953C71.7678 31.6699 71.1778 31.6573 70.5687 31.6573C69.9977 31.6573 69.4203 31.6699 68.8366 31.6953C68.2529 31.708 67.8152 31.7207 67.5233 31.7334V31.3337C67.9167 31.3337 68.1895 31.2385 68.3418 31.0482C68.5067 30.8578 68.5892 30.4962 68.5892 29.9632V23.9295C68.5892 23.3585 68.5131 22.9398 68.3608 22.6733C68.2085 22.3941 67.9294 22.2546 67.5233 22.2546V21.8549C67.9294 21.8929 68.3227 21.912 68.7034 21.912C69.3379 21.912 69.9279 21.8929 70.4736 21.8549C71.0319 21.8041 71.5458 21.7343 72.0153 21.6455V23.0159C72.1802 22.686 72.3833 22.4195 72.6244 22.2165C72.8655 22.0008 73.1383 21.8422 73.4428 21.7406C73.7601 21.6391 74.1027 21.5884 74.4706 21.5884Z" fill="black"/>
<path d="M59.9812 31.8666C59.3848 31.8666 58.8962 31.7524 58.5156 31.524C58.1349 31.2956 57.8557 30.9974 57.6781 30.6294C57.5131 30.2614 57.4306 29.8744 57.4306 29.4684C57.4306 28.9354 57.5512 28.504 57.7923 28.1741C58.0334 27.8315 58.3443 27.5586 58.7249 27.3556C59.1183 27.1399 59.5307 26.9623 59.9621 26.8227C60.3936 26.6831 60.7996 26.5499 61.1803 26.423C61.5737 26.2834 61.8909 26.1248 62.132 25.9471C62.3731 25.7568 62.4936 25.5157 62.4936 25.2238V23.5298C62.4936 23.3268 62.4556 23.1047 62.3794 22.8636C62.316 22.6225 62.1891 22.4132 61.9987 22.2355C61.8084 22.0579 61.5229 21.9691 61.1422 21.9691C60.9392 21.9691 60.7425 22.0008 60.5522 22.0642C60.3745 22.115 60.2159 22.1911 60.0763 22.2926C60.5204 22.4576 60.844 22.6923 61.047 22.9969C61.2501 23.2887 61.3516 23.6123 61.3516 23.9676C61.3516 24.4752 61.1739 24.8749 60.8186 25.1667C60.4633 25.4586 60.0446 25.6045 59.5624 25.6045C59.0548 25.6045 58.6615 25.4459 58.3823 25.1287C58.1032 24.8114 57.9636 24.4181 57.9636 23.9486C57.9636 23.5552 58.0587 23.2253 58.2491 22.9588C58.4521 22.6796 58.7503 22.4259 59.1437 22.1975C59.5243 21.9817 59.9812 21.8295 60.5141 21.7406C61.0471 21.6391 61.6054 21.5884 62.1891 21.5884C62.8108 21.5884 63.3882 21.6518 63.9212 21.7787C64.4541 21.8929 64.9109 22.1467 65.2916 22.5401C65.5581 22.8192 65.7294 23.1682 65.8055 23.5869C65.8816 24.0057 65.9197 24.545 65.9197 25.2048V30.3059C65.9197 30.6231 65.9387 30.8388 65.9768 30.953C66.0276 31.0672 66.11 31.1243 66.2242 31.1243C66.3258 31.1243 66.4209 31.0926 66.5097 31.0291C66.6113 30.9657 66.7064 30.9022 66.7953 30.8388L66.9856 31.1624C66.7064 31.4035 66.3575 31.5811 65.9387 31.6953C65.5327 31.8095 65.1012 31.8666 64.6444 31.8666C64.0988 31.8666 63.6737 31.8032 63.3692 31.6763C63.0773 31.5367 62.868 31.3591 62.7411 31.1433C62.6269 30.9149 62.5634 30.6738 62.5507 30.4201C62.2842 30.8388 61.948 31.1877 61.5419 31.4669C61.1486 31.7334 60.6283 31.8666 59.9812 31.8666ZM61.7894 30.3439C61.9289 30.3439 62.0495 30.3249 62.151 30.2868C62.2652 30.2361 62.3794 30.1472 62.4936 30.0203V26.0042C62.4048 26.1692 62.2842 26.3341 62.132 26.4991C61.9924 26.6514 61.8465 26.81 61.6942 26.9749C61.5419 27.1399 61.396 27.3175 61.2564 27.5079C61.1295 27.6982 61.0217 27.9203 60.9328 28.1741C60.8567 28.4152 60.8186 28.7007 60.8186 29.0306C60.8186 29.5128 60.9075 29.8554 61.0851 30.0584C61.2755 30.2487 61.5102 30.3439 61.7894 30.3439Z" fill="black"/>
<path d="M55.6011 16.8491V29.9634C55.6011 30.4963 55.6772 30.858 55.8295 31.0483C55.9944 31.2387 56.2736 31.3338 56.667 31.3338V31.7335C56.4132 31.7209 56.0325 31.7082 55.5249 31.6955C55.0174 31.6701 54.4971 31.6574 53.9642 31.6574C53.4312 31.6574 52.8919 31.6701 52.3463 31.6955C51.8007 31.7082 51.3883 31.7209 51.1091 31.7335V31.3338C51.5025 31.3338 51.7753 31.2387 51.9276 31.0483C52.0925 30.858 52.175 30.4963 52.175 29.9634V19.1332C52.175 18.5622 52.0989 18.1434 51.9466 17.8769C51.7943 17.5978 51.5152 17.4582 51.1091 17.4582V17.0585C51.5152 17.0966 51.9085 17.1156 52.2892 17.1156C52.9237 17.1156 53.5137 17.0966 54.0593 17.0585C54.6177 17.0077 55.1316 16.9379 55.6011 16.8491Z" fill="black"/>
<path d="M49.3566 21.6455V29.6587C49.3566 30.2297 49.4327 30.6548 49.585 30.934C49.7499 31.2005 50.0291 31.3337 50.4225 31.3337V31.7334C50.0291 31.6953 49.6357 31.6763 49.2424 31.6763C48.6079 31.6763 48.0179 31.6953 47.4722 31.7334C46.9266 31.7715 46.4127 31.8413 45.9305 31.9428V30.5724C45.626 31.0799 45.2136 31.4479 44.6933 31.6763C44.1857 31.892 43.5893 31.9999 42.9041 31.9999C42.3204 31.9999 41.8573 31.9237 41.5147 31.7715C41.1847 31.6319 40.931 31.4542 40.7533 31.2385C40.563 31.0101 40.4234 30.7056 40.3346 30.3249C40.2457 29.9442 40.2013 29.4303 40.2013 28.7832V23.9296C40.2013 23.3585 40.1252 22.9398 39.9729 22.6733C39.8207 22.3942 39.5415 22.2546 39.1354 22.2546V21.8549C39.5415 21.8929 39.9349 21.912 40.3155 21.912C40.95 21.912 41.54 21.8929 42.0857 21.8549C42.644 21.8041 43.1579 21.7343 43.6274 21.6455V29.811C43.6274 30.0775 43.6591 30.2995 43.7226 30.4772C43.786 30.6548 43.8875 30.7881 44.0271 30.8769C44.1667 30.9657 44.3444 31.0101 44.5601 31.0101C44.8012 31.0101 45.0232 30.953 45.2263 30.8388C45.4293 30.7246 45.5942 30.566 45.7211 30.363C45.8607 30.1473 45.9305 29.9062 45.9305 29.6397V23.9296C45.9305 23.3585 45.8544 22.9398 45.7021 22.6733C45.5498 22.3942 45.2707 22.2546 44.8646 22.2546V21.8549C45.2707 21.8929 45.664 21.912 46.0447 21.912C46.6792 21.912 47.2692 21.8929 47.8148 21.8549C48.3732 21.8041 48.8871 21.7343 49.3566 21.6455Z" fill="black"/>
<path d="M34.8161 21.5884C35.3744 21.5884 35.8693 21.6455 36.3007 21.7597C36.7321 21.8739 37.0747 22.0071 37.3285 22.1594C37.6711 22.3624 37.9439 22.6352 38.147 22.9778C38.3627 23.3078 38.4705 23.6948 38.4705 24.1389C38.4705 24.6592 38.2992 25.0969 37.9566 25.4522C37.614 25.8075 37.1762 25.9852 36.6433 25.9852C36.085 25.9852 35.6535 25.8266 35.349 25.5093C35.0445 25.1921 34.8922 24.7797 34.8922 24.2721C34.8922 23.79 35.0445 23.3839 35.349 23.054C35.6662 22.7114 36.0342 22.483 36.453 22.3688C36.3641 22.3053 36.2563 22.2546 36.1294 22.2165C36.0152 22.1657 35.8693 22.1404 35.6916 22.1404C35.2348 22.1404 34.8605 22.2799 34.5686 22.5591C34.2895 22.8256 34.0674 23.1809 33.9024 23.625C33.7502 24.0691 33.6423 24.545 33.5789 25.0525C33.5154 25.5601 33.4837 26.055 33.4837 26.5372C33.4837 27.4254 33.6042 28.117 33.8453 28.6118C34.0864 29.1067 34.391 29.4493 34.759 29.6397C35.1269 29.83 35.4949 29.9252 35.8629 29.9252C36.0406 29.9252 36.2499 29.8998 36.491 29.849C36.7448 29.7983 37.0176 29.6841 37.3095 29.5064C37.6013 29.3161 37.8868 29.0306 38.166 28.6499L38.4896 28.7641C38.3373 29.2717 38.0899 29.7793 37.7473 30.2868C37.4173 30.7817 36.9859 31.1941 36.453 31.524C35.92 31.8412 35.2729 31.9999 34.5115 31.9999C33.6613 31.9999 32.8873 31.8349 32.1894 31.505C31.5042 31.1751 30.9522 30.6294 30.5335 29.8681C30.1274 29.1067 29.9244 28.0852 29.9244 26.8036C29.9244 25.5855 30.1401 24.5957 30.5715 23.8344C31.003 23.0603 31.5867 22.4957 32.3226 22.1404C33.0713 21.7724 33.9024 21.5884 34.8161 21.5884Z" fill="black"/>
<path d="M27.7226 21.5884C28.1794 21.5884 28.5347 21.6899 28.7885 21.8929C29.0423 22.0833 29.22 22.3307 29.3215 22.6352C29.423 22.9271 29.4737 23.2189 29.4737 23.5108C29.4737 24.0818 29.3088 24.5386 28.9789 24.8812C28.6616 25.2111 28.2429 25.3761 27.7226 25.3761C27.1643 25.3761 26.7392 25.2492 26.4474 24.9954C26.1682 24.7416 26.0286 24.4117 26.0286 24.0057C26.0286 23.5742 26.1174 23.2189 26.2951 22.9398C26.4854 22.6606 26.7202 22.4259 26.9993 22.2355C26.7709 22.2355 26.5679 22.2799 26.3903 22.3688C26.238 22.4322 26.0921 22.521 25.9525 22.6352C25.8129 22.7494 25.6924 22.8827 25.5908 23.0349C25.4893 23.1745 25.4069 23.3331 25.3434 23.5108C25.2927 23.6884 25.2673 23.8724 25.2673 24.0628V29.7729C25.2673 30.382 25.3942 30.7944 25.6479 31.0101C25.9017 31.2258 26.3205 31.3337 26.9042 31.3337V31.7334C26.6123 31.7207 26.1746 31.708 25.5908 31.6953C25.0198 31.6699 24.4298 31.6573 23.8207 31.6573C23.2497 31.6573 22.6723 31.6699 22.0886 31.6953C21.5049 31.708 21.0672 31.7207 20.7753 31.7334V31.3337C21.1687 31.3337 21.4415 31.2385 21.5938 31.0482C21.7587 30.8578 21.8412 30.4962 21.8412 29.9632V23.9295C21.8412 23.3585 21.7651 22.9398 21.6128 22.6733C21.4605 22.3941 21.1814 22.2546 20.7753 22.2546V21.8549C21.1814 21.8929 21.5747 21.912 21.9554 21.912C22.5899 21.912 23.1799 21.8929 23.7255 21.8549C24.2839 21.8041 24.7978 21.7343 25.2673 21.6455V23.0159C25.4322 22.686 25.6353 22.4195 25.8764 22.2165C26.1174 22.0008 26.3903 21.8422 26.6948 21.7406C27.012 21.6391 27.3546 21.5884 27.7226 21.5884Z" fill="black"/>
<circle cx="17.172" cy="18.4985" r="1.79102" fill="#2A9159"/>
<path d="M18.9846 21.6455V29.9633C18.9846 30.4962 19.0608 30.8579 19.2131 31.0482C19.378 31.2385 19.6572 31.3337 20.0505 31.3337V31.7334C19.7968 31.7207 19.4161 31.708 18.9085 31.6953C18.4009 31.67 17.8807 31.6573 17.3477 31.6573C16.8148 31.6573 16.2755 31.67 15.7299 31.6953C15.1842 31.708 14.7718 31.7207 14.4927 31.7334V31.3337C14.886 31.3337 15.1589 31.2385 15.3111 31.0482C15.4761 30.8579 15.5586 30.4962 15.5586 29.9633V23.9296C15.5586 23.3585 15.4824 22.9398 15.3302 22.6733C15.1779 22.3942 14.8987 22.2546 14.4927 22.2546V21.8549C14.8987 21.8929 15.2921 21.912 15.6728 21.912C16.3072 21.912 16.8973 21.8929 17.4429 21.8549C18.0012 21.8041 18.5151 21.7343 18.9846 21.6455Z" fill="black"/>
<path d="M8.32957 17.9912C9.16705 17.9912 9.85227 18.1181 10.3852 18.3719C10.9309 18.613 11.413 18.8985 11.8318 19.2284C12.0856 19.4187 12.2759 19.4441 12.4028 19.3045C12.5424 19.1523 12.6375 18.8033 12.6883 18.2577H13.1261C13.1007 18.7653 13.0817 19.387 13.069 20.123C13.0563 20.8463 13.0499 21.8107 13.0499 23.0161H12.6122C12.5614 22.407 12.4789 21.8678 12.3647 21.3983C12.2505 20.9161 12.0792 20.491 11.8508 20.123C11.6224 19.755 11.2925 19.4314 10.8611 19.1523C10.5946 18.9746 10.3091 18.835 10.0045 18.7335C9.71269 18.632 9.40815 18.5813 9.09092 18.5813C8.36763 18.5813 7.77124 18.7843 7.30174 19.1903C6.83224 19.5837 6.46426 20.104 6.19778 20.7511C5.944 21.3856 5.76635 22.0835 5.66484 22.8448C5.56332 23.5935 5.51257 24.3231 5.51257 25.0337C5.51257 25.7443 5.56332 26.4803 5.66484 27.2416C5.76635 27.9903 5.944 28.6882 6.19778 29.3353C6.46426 29.9698 6.83224 30.4901 7.30174 30.8961C7.77124 31.2895 8.36763 31.4862 9.09092 31.4862C9.40815 31.4862 9.71269 31.4354 10.0045 31.3339C10.3091 31.2197 10.5946 31.0801 10.8611 30.9152C11.4955 30.5218 11.9206 29.9952 12.1363 29.3353C12.3647 28.6755 12.5233 27.8253 12.6122 26.7848H13.0499C13.0499 28.0284 13.0563 29.0372 13.069 29.8112C13.0817 30.5725 13.1007 31.2133 13.1261 31.7336H12.6883C12.6375 31.188 12.5487 30.8454 12.4218 30.7058C12.3076 30.5662 12.1109 30.5852 11.8318 30.7629C11.3623 31.0928 10.8611 31.3847 10.3281 31.6384C9.80786 31.8795 9.13533 32.0001 8.31053 32.0001C6.87665 32.0001 5.62042 31.7273 4.54184 31.1816C3.46326 30.636 2.62578 29.8493 2.02938 28.8214C1.43299 27.7936 1.1348 26.5564 1.1348 25.1098C1.1348 23.6887 1.43934 22.4451 2.04842 21.3792C2.67019 20.3133 3.52036 19.4822 4.59894 18.8858C5.67753 18.2894 6.92107 17.9912 8.32957 17.9912Z" fill="black"/>
<path d="M48.5006 0.194824V13.3091C48.5006 13.842 48.5767 14.2037 48.729 14.394C48.8939 14.5844 49.1731 14.6795 49.5665 14.6795V15.0792C49.3127 15.0666 48.932 15.0539 48.4244 15.0412C47.9169 15.0158 47.3966 15.0031 46.8637 15.0031C46.3307 15.0031 45.7914 15.0158 45.2458 15.0412C44.7002 15.0539 44.2878 15.0666 44.0086 15.0792V14.6795C44.402 14.6795 44.6748 14.5844 44.8271 14.394C44.992 14.2037 45.0745 13.842 45.0745 13.3091V2.47888C45.0745 1.90787 44.9984 1.48912 44.8461 1.22265C44.6938 0.943487 44.4147 0.803905 44.0086 0.803905V0.404197C44.4147 0.442264 44.808 0.461298 45.1887 0.461298C45.8232 0.461298 46.4132 0.442264 46.9588 0.404197C47.5172 0.35344 48.0311 0.283649 48.5006 0.194824ZM54.8198 5.20071V5.58139C54.363 5.70828 53.8998 5.93034 53.4303 6.24757C52.9608 6.5648 52.485 6.96451 52.0028 7.4467L51.3366 8.11288L51.4699 7.86544L54.5343 13.6898C54.6358 13.8801 54.7437 14.0705 54.8579 14.2608C54.9721 14.4384 55.118 14.578 55.2956 14.6795V15.0792C55.0799 15.0666 54.75 15.0539 54.3059 15.0412C53.8745 15.0158 53.4367 15.0031 52.9926 15.0031C52.485 15.0031 51.9711 15.0158 51.4508 15.0412C50.9432 15.0539 50.5626 15.0666 50.3088 15.0792V14.6795C50.5626 14.6795 50.7275 14.6224 50.8037 14.5082C50.8925 14.394 50.8861 14.2354 50.7846 14.0324L49.1097 10.4921C49.0208 10.3145 48.9193 10.2003 48.8051 10.1495C48.6909 10.0987 48.5577 10.0734 48.4054 10.0734V9.71172C48.5831 9.71172 48.748 9.69903 48.9003 9.67365C49.0526 9.63558 49.1921 9.5531 49.319 9.42621L50.7846 8.05578C51.2288 7.64972 51.4508 7.26905 51.4508 6.91375C51.4635 6.54576 51.3239 6.24122 51.0321 6.00013C50.7529 5.75903 50.3849 5.61945 49.9281 5.58139V5.20071C50.2961 5.2134 50.6895 5.22609 51.1082 5.23878C51.5396 5.25147 51.9076 5.25781 52.2122 5.25781C52.4786 5.25781 52.7832 5.25781 53.1258 5.25781C53.4684 5.24512 53.792 5.23878 54.0965 5.23878C54.4137 5.22609 54.6548 5.2134 54.8198 5.20071Z" fill="black"/>
<path d="M39.6879 4.93408C40.2716 4.93408 40.7284 5.01022 41.0583 5.16249C41.4009 5.30207 41.6611 5.47972 41.8387 5.69543C42.0291 5.92384 42.1686 6.22838 42.2575 6.60906C42.3463 6.98973 42.3907 7.50364 42.3907 8.15079V13.3089C42.3907 13.8419 42.4668 14.2035 42.6191 14.3939C42.7841 14.5842 43.0632 14.6794 43.4566 14.6794V15.0791C43.2028 15.0664 42.8158 15.0537 42.2955 15.041C41.788 15.0156 41.2867 15.003 40.7919 15.003C40.2589 15.003 39.7387 15.0156 39.2311 15.041C38.7235 15.0537 38.3428 15.0664 38.0891 15.0791V14.6794C38.419 14.6794 38.6474 14.5842 38.7743 14.3939C38.9012 14.2035 38.9646 13.8419 38.9646 13.3089V7.12297C38.9646 6.8565 38.9329 6.63443 38.8695 6.45679C38.806 6.27914 38.7045 6.1459 38.5649 6.05708C38.438 5.96825 38.2604 5.92384 38.032 5.92384C37.8036 5.92384 37.5815 5.98094 37.3658 6.09514C37.1628 6.20935 36.9914 6.37431 36.8519 6.59002C36.725 6.79305 36.6615 7.0278 36.6615 7.29427V13.3089C36.6615 13.8419 36.725 14.2035 36.8519 14.3939C36.9914 14.5842 37.2199 14.6794 37.5371 14.6794V15.0791C37.296 15.0664 36.9407 15.0537 36.4712 15.041C36.0017 15.0156 35.5195 15.003 35.0246 15.003C34.4917 15.003 33.9524 15.0156 33.4068 15.041C32.8611 15.0537 32.4487 15.0664 32.1696 15.0791V14.6794C32.5629 14.6794 32.8357 14.5842 32.988 14.3939C33.153 14.2035 33.2354 13.8419 33.2354 13.3089V7.27524C33.2354 6.70422 33.1593 6.28548 33.007 6.01901C32.8548 5.73985 32.5756 5.60027 32.1696 5.60027V5.20055C32.5756 5.23862 32.969 5.25766 33.3496 5.25766C33.9841 5.25766 34.5742 5.23862 35.1198 5.20055C35.6781 5.1498 36.192 5.08001 36.6615 4.99118V6.36162C36.9661 5.85405 37.3721 5.49241 37.8797 5.27669C38.3999 5.04828 39.0027 4.93408 39.6879 4.93408Z" fill="black"/>
<path d="M30.3789 4.99072V13.3085C30.3789 13.8414 30.455 14.2031 30.6073 14.3934C30.7722 14.5837 31.0514 14.6789 31.4448 14.6789V15.0786C31.191 15.0659 30.8103 15.0533 30.3027 15.0406C29.7952 15.0152 29.2749 15.0025 28.742 15.0025C28.209 15.0025 27.6697 15.0152 27.1241 15.0406C26.5785 15.0533 26.1661 15.0659 25.8869 15.0786V14.6789C26.2803 14.6789 26.5531 14.5837 26.7054 14.3934C26.8703 14.2031 26.9528 13.8414 26.9528 13.3085V7.27478C26.9528 6.70376 26.8767 6.28502 26.7244 6.01855C26.5721 5.73939 26.293 5.5998 25.8869 5.5998V5.20009C26.293 5.23816 26.6863 5.2572 27.067 5.2572C27.7015 5.2572 28.2915 5.23816 28.8371 5.20009C29.3955 5.14934 29.9094 5.07955 30.3789 4.99072Z" fill="black"/>
<path d="M18.4815 0.194824V6.36177C18.786 5.8542 19.1921 5.49256 19.6996 5.27684C20.2199 5.04844 20.8226 4.93424 21.5078 4.93424C22.0915 4.93424 22.5484 5.01037 22.8783 5.16264C23.2209 5.30222 23.481 5.47987 23.6587 5.69559C23.849 5.92399 23.9886 6.22853 24.0774 6.60921C24.1662 6.98989 24.2106 7.5038 24.2106 8.15095V13.3091C24.2106 13.842 24.2868 14.2037 24.4391 14.394C24.604 14.5844 24.8832 14.6795 25.2765 14.6795V15.0792C25.0228 15.0666 24.6357 15.0539 24.1155 15.0412C23.6079 15.0158 23.1067 15.0031 22.6118 15.0031C22.0789 15.0031 21.5586 15.0158 21.051 15.0412C20.5435 15.0539 20.1628 15.0666 19.909 15.0792V14.6795C20.2389 14.6795 20.4673 14.5844 20.5942 14.394C20.7211 14.2037 20.7846 13.842 20.7846 13.3091V7.12312C20.7846 6.85665 20.7528 6.63459 20.6894 6.45694C20.6259 6.27929 20.5244 6.14606 20.3849 6.05723C20.258 5.96841 20.0803 5.92399 19.8519 5.92399C19.6235 5.92399 19.4014 5.9811 19.1857 6.0953C18.9827 6.2095 18.8114 6.37446 18.6718 6.59018C18.5449 6.7932 18.4815 7.02795 18.4815 7.29443V13.3091C18.4815 13.842 18.5449 14.2037 18.6718 14.394C18.8114 14.5844 19.0398 14.6795 19.357 14.6795V15.0792C19.1159 15.0666 18.7606 15.0539 18.2911 15.0412C17.8216 15.0158 17.3394 15.0031 16.8446 15.0031C16.3116 15.0031 15.7723 15.0158 15.2267 15.0412C14.6811 15.0539 14.2687 15.0666 13.9895 15.0792V14.6795C14.3829 14.6795 14.6557 14.5844 14.808 14.394C14.9729 14.2037 15.0554 13.842 15.0554 13.3091V2.47888C15.0554 1.90787 14.9793 1.48912 14.827 1.22265C14.6747 0.943487 14.3956 0.803905 13.9895 0.803905V0.404197C14.3956 0.442264 14.7889 0.461298 15.1696 0.461298C15.8041 0.461298 16.3941 0.442264 16.9397 0.404197C17.4981 0.35344 18.012 0.283649 18.4815 0.194824Z" fill="black"/>
<path d="M13.3164 1.60254C13.2657 2.3512 13.2276 3.07448 13.2022 3.77239C13.1895 4.4703 13.1832 5.00324 13.1832 5.37123C13.1832 5.6377 13.1895 5.89148 13.2022 6.13258C13.2149 6.37367 13.2276 6.5767 13.2403 6.74166H12.8025C12.5107 5.54888 12.1554 4.60988 11.7366 3.92466C11.3306 3.23944 10.8928 2.75725 10.4233 2.47809C9.96647 2.18624 9.50966 2.04031 9.05285 2.04031H9.03382V12.9276C9.03382 13.4479 9.08458 13.8349 9.18609 14.0887C9.30029 14.3425 9.50966 14.5074 9.8142 14.5836C10.1187 14.6597 10.5629 14.6978 11.1466 14.6978V15.0785C10.7024 15.0658 10.0997 15.0531 9.33836 15.0404C8.5897 15.0277 7.80297 15.0214 6.97817 15.0214C6.19144 15.0214 5.44912 15.0277 4.75122 15.0404C4.05331 15.0531 3.48864 15.0658 3.05721 15.0785V14.6978C3.64091 14.6978 4.08504 14.6597 4.38958 14.5836C4.69412 14.5074 4.89714 14.3425 4.99866 14.0887C5.11286 13.8349 5.16996 13.4479 5.16996 12.9276V2.04031H5.15093C4.69412 2.04031 4.23096 2.18624 3.76146 2.47809C3.30465 2.75725 2.87322 3.23944 2.46716 3.92466C2.06111 4.59719 1.70581 5.53619 1.40127 6.74166H0.963495C0.988873 6.5767 1.00156 6.37367 1.00156 6.13258C1.01425 5.89148 1.0206 5.6377 1.0206 5.37123C1.0206 5.00324 1.00791 4.4703 0.982529 3.77239C0.969839 3.07448 0.938116 2.3512 0.88736 1.60254C1.49644 1.61523 2.16897 1.62792 2.90494 1.64061C3.64091 1.6533 4.37689 1.65964 5.11286 1.65964C5.84883 1.65964 6.51502 1.65964 7.11141 1.65964C7.7078 1.65964 8.37398 1.65964 9.10995 1.65964C9.84593 1.65964 10.5819 1.6533 11.3179 1.64061C12.0538 1.62792 12.72 1.61523 13.3164 1.60254Z" fill="black"/>
<ellipse cx="28.5567" cy="1.79603" rx="1.79603" ry="1.79603" fill="#2A9159"/>
<circle cx="78.209" cy="30.2085" r="1.79102" fill="#2A9159"/>
</svg>
